HIERARCHY
ROOT Hips
{
  OFFSET -372.277008057 88.828384399 569.627502441
  CHANNELS 6 Xposition Yposition Zposition Zrotation Xrotation Yrotation
  JOINT Spine
  {
    OFFSET 3e-09 8.814247131 -2.080078125
    CHANNELS 3 Zrotation Xrotation Yrotation
    JOINT Spine1
    {
      OFFSET 0.0 8.844139099 0.0
      CHANNELS 3 Zrotation Xrotation Yrotation
      JOINT Spine2
      {
        OFFSET 0.0 11.682266235 0.0
        CHANNELS 3 Zrotation Xrotation Yrotation
        JOINT Spine3
        {
          OFFSET 0.0 11.746704102 0.0
          CHANNELS 3 Zrotation Xrotation Yrotation
          JOINT Neck
          {
            OFFSET 0.0 17.65826416 0.0
            CHANNELS 3 Zrotation Xrotation Yrotation
            JOINT Neck1
            {
              OFFSET 0.0 5.1015172 0.0
              CHANNELS 3 Zrotation Xrotation Yrotation
              JOINT Head
              {
                OFFSET 0.0 5.1015172 0.0
                CHANNELS 3 Zrotation Xrotation Yrotation
                JOINT HeadEnd
                {
                  OFFSET 0.0 11.655090332 0.0
                  CHANNELS 0 
                  End Site
                  {
                    OFFSET 0.0 3.496527195 0.0
                  }
                }
              }
            }
          }
          JOINT RightShoulder
          {
            OFFSET -2.625396967 11.175216675 0.0
            CHANNELS 3 Zrotation Xrotation Yrotation
            JOINT RightArm
            {
              OFFSET -10.434706688 6.22e-07 0.0
              CHANNELS 3 Zrotation Xrotation Yrotation
              JOINT RightForeArm
              {
                OFFSET -29.628416061 1.766e-06 0.0
                CHANNELS 3 Zrotation Xrotation Yrotation
                JOINT RightHand
                {
                  OFFSET -22.857603073 1.362e-06 6.1e-05
                  CHANNELS 3 Zrotation Xrotation Yrotation
                  JOINT RightHandThumb1
                  {
                    OFFSET -3.959564209 -2.867310047 2.944274902
                    CHANNELS 3 Zrotation Xrotation Yrotation
                    JOINT RightHandThumb2
                    {
                      OFFSET -2.445454836 -0.174735144 2.28350997
                      CHANNELS 3 Zrotation Xrotation Yrotation
                      JOINT RightHandThumb3
                      {
                        OFFSET -2.741876125 -0.195915341 2.560301542
                        CHANNELS 3 Zrotation Xrotation Yrotation
                        JOINT RightHandThumb4
                        {
                          OFFSET -2.297238588 -0.16414465 2.145109177
                          CHANNELS 0 
                          End Site
                          {
                            OFFSET -0.689171612 -0.049243398 0.643532753
                          }
                        }
                      }
                    }
                  }
                  JOINT RightHandIndex1
                  {
                    OFFSET -10.030900002 -0.086760841 2.345275879
                    CHANNELS 3 Zrotation Xrotation Yrotation
                    JOINT RightHandIndex2
                    {
                      OFFSET -4.061095715 2.42e-07 0.0
                      CHANNELS 3 Zrotation Xrotation Yrotation
                      JOINT RightHandIndex3
                      {
                        OFFSET -3.24887085 1.94e-07 0.0
                        CHANNELS 3 Zrotation Xrotation Yrotation
                        JOINT RightHandIndex4
                        {
                          OFFSET -2.639708757 1.57e-07 0.0
                          CHANNELS 0 
                          End Site
                          {
                            OFFSET -0.791912675 4.7e-08 0.0
                          }
                        }
                      }
                    }
                  }
                  JOINT RightHandMiddle1
                  {
                    OFFSET -9.502944946 0.104095154 0.006775022
                    CHANNELS 3 Zrotation Xrotation Yrotation
                    JOINT RightHandMiddle2
                    {
                      OFFSET -4.568725586 2.72e-07 0.0
                      CHANNELS 3 Zrotation Xrotation Yrotation
                      JOINT RightHandMiddle3
                      {
                        OFFSET -3.654983759 2.18e-07 0.0
                        CHANNELS 3 Zrotation Xrotation Yrotation
                        JOINT RightHandMiddle4
                        {
                          OFFSET -2.74124074 1.63e-07 0.0
                          CHANNELS 0 
                          End Site
                          {
                            OFFSET -0.822372258 4.9e-08 0.0
                          }
                        }
                      }
                    }
                  }
                  JOINT RightHandRing1
                  {
                    OFFSET -8.921708107 0.086761184 -2.267456055
                    CHANNELS 3 Zrotation Xrotation Yrotation
                    JOINT RightHandRing2
                    {
                      OFFSET -4.061095715 2.42e-07 0.0
                      CHANNELS 3 Zrotation Xrotation Yrotation
                      JOINT RightHandRing3
                      {
                        OFFSET -3.654983759 2.18e-07 0.0
                        CHANNELS 3 Zrotation Xrotation Yrotation
                        JOINT RightHandRing4
                        {
                          OFFSET -2.74124074 1.63e-07 0.0
                          CHANNELS 0 
                          End Site
                          {
                            OFFSET -0.822372258 4.9e-08 0.0
                          }
                        }
                      }
                    }
                  }
                  JOINT RightHandPinky1
                  {
                    OFFSET -7.9769907 -0.173491821 -4.467224121
                    CHANNELS 3 Zrotation Xrotation Yrotation
                    JOINT RightHandPinky2
                    {
                      OFFSET -3.350402832 2e-07 0.0
                      CHANNELS 3 Zrotation Xrotation Yrotation
                      JOINT RightHandPinky3
                      {
                        OFFSET -2.842757702 1.69e-07 0.0
                        CHANNELS 3 Zrotation Xrotation Yrotation
                        JOINT RightHandPinky4
                        {
                          OFFSET -2.639708757 1.57e-07 0.0
                          CHANNELS 0 
                          End Site
                          {
                            OFFSET -0.791912675 4.7e-08 0.0
                          }
                        }
                      }
                    }
                  }
                  JOINT RightForeArmEnd
                  {
                    OFFSET 0.0 0.0 0.0
                    CHANNELS 0 
                    End Site
                    {
                      OFFSET -0.0 -0.0 -0.0
                    }
                  }
                }
                JOINT RightArmEnd
                {
                  OFFSET 0.0 0.0 0.0
                  CHANNELS 0 
                  End Site
                  {
                    OFFSET -0.0 0.0 0.0
                  }
                }
              }
            }
          }
          JOINT LeftShoulder
          {
            OFFSET 2.625396967 11.175216675 0.0
            CHANNELS 3 Zrotation Xrotation Yrotation
            JOINT LeftArm
            {
              OFFSET 10.813628197 6.45e-07 0.0
              CHANNELS 3 Zrotation Xrotation Yrotation
              JOINT LeftForeArm
              {
                OFFSET 28.724775314 1.712e-06 0.0
                CHANNELS 3 Zrotation Xrotation Yrotation
                JOINT LeftHand
                {
                  OFFSET 25.716171265 -0.644379139 -0.328795969
                  CHANNELS 3 Zrotation Xrotation Yrotation
                  JOINT LeftHandThumb1
                  {
                    OFFSET 3.959563732 -2.867310762 2.944274902
                    CHANNELS 3 Zrotation Xrotation Yrotation
                    JOINT LeftHandThumb2
                    {
                      OFFSET 2.445455074 -0.174735546 2.283510208
                      CHANNELS 3 Zrotation Xrotation Yrotation
                      JOINT LeftHandThumb3
                      {
                        OFFSET 2.741876364 -0.195915788 2.560301781
                        CHANNELS 3 Zrotation Xrotation Yrotation
                        JOINT LeftHandThumb4
                        {
                          OFFSET 2.262690544 -0.161676437 2.112848997
                          CHANNELS 0 
                          End Site
                          {
                            OFFSET 0.678807199 -0.048502933 0.633854747
                          }
                        }
                      }
                    }
                  }
                  JOINT LeftHandIndex1
                  {
                    OFFSET 10.030900002 -0.086762041 2.345275879
                    CHANNELS 3 Zrotation Xrotation Yrotation
                    JOINT LeftHandIndex2
                    {
                      OFFSET 4.061095715 -4.84e-07 -1.1e-08
                      CHANNELS 3 Zrotation Xrotation Yrotation
                      JOINT LeftHandIndex3
                      {
                        OFFSET 3.24887085 -3.87e-07 -9e-09
                        CHANNELS 3 Zrotation Xrotation Yrotation
                        JOINT LeftHandIndex4
                        {
                          OFFSET 2.639708757 -3.15e-07 -7e-09
                          CHANNELS 0 
                          End Site
                          {
                            OFFSET 0.791912675 -9.4e-08 -2e-09
                          }
                        }
                      }
                    }
                  }
                  JOINT LeftHandMiddle1
                  {
                    OFFSET 9.502944946 0.104094021 0.006774992
                    CHANNELS 3 Zrotation Xrotation Yrotation
                    JOINT LeftHandMiddle2
                    {
                      OFFSET 4.568725586 -5.45e-07 -1.2e-08
                      CHANNELS 3 Zrotation Xrotation Yrotation
                      JOINT LeftHandMiddle3
                      {
                        OFFSET 3.654983759 -4.36e-07 -1e-08
                        CHANNELS 3 Zrotation Xrotation Yrotation
                        JOINT LeftHandMiddle4
                        {
                          OFFSET 2.74124074 -3.27e-07 -7e-09
                          CHANNELS 0 
                          End Site
                          {
                            OFFSET 0.822372258 -9.8e-08 -2e-09
                          }
                        }
                      }
                    }
                  }
                  JOINT LeftHandRing1
                  {
                    OFFSET 8.921708107 0.086760119 -2.267456055
                    CHANNELS 3 Zrotation Xrotation Yrotation
                    JOINT LeftHandRing2
                    {
                      OFFSET 4.061095715 -4.84e-07 -1.1e-08
                      CHANNELS 3 Zrotation Xrotation Yrotation
                      JOINT LeftHandRing3
                      {
                        OFFSET 3.654983759 -4.36e-07 -1e-08
                        CHANNELS 3 Zrotation Xrotation Yrotation
                        JOINT LeftHandRing4
                        {
                          OFFSET 2.74124074 -3.27e-07 -7e-09
                          CHANNELS 0 
                          End Site
                          {
                            OFFSET 0.822372258 -9.8e-08 -2e-09
                          }
                        }
                      }
                    }
                  }
                  JOINT LeftHandPinky1
                  {
                    OFFSET 7.9769907 -0.173492774 -4.467224121
                    CHANNELS 3 Zrotation Xrotation Yrotation
                    JOINT LeftHandPinky2
                    {
                      OFFSET 3.350402832 -3.99e-07 -9e-09
                      CHANNELS 3 Zrotation Xrotation Yrotation
                      JOINT LeftHandPinky3
                      {
                        OFFSET 2.842757702 -3.39e-07 -7e-09
                        CHANNELS 3 Zrotation Xrotation Yrotation
                        JOINT LeftHandPinky4
                        {
                          OFFSET 2.639708757 -3.15e-07 -7e-09
                          CHANNELS 0 
                          End Site
                          {
                            OFFSET 0.791912675 -9.4e-08 -2e-09
                          }
                        }
                      }
                    }
                  }
                  JOINT LeftForeArmEnd
                  {
                    OFFSET 0.0 0.0 0.0
                    CHANNELS 0 
                    End Site
                    {
                      OFFSET 0.0 -0.0 -0.0
                    }
                  }
                }
                JOINT LeftArmEnd
                {
                  OFFSET 0.0 0.0 0.0
                  CHANNELS 0 
                  End Site
                  {
                    OFFSET 0.0 -0.0 -0.0
                  }
                }
              }
            }
          }
        }
      }
    }
  }
  JOINT RightUpLeg
  {
    OFFSET -11.289948463 -0.0 0.0
    CHANNELS 3 Zrotation Xrotation Yrotation
    JOINT RightLeg
    {
      OFFSET 0.0 -38.200325012 0.0
      CHANNELS 3 Zrotation Xrotation Yrotation
      JOINT RightFoot
      {
        OFFSET 0.0 -39.900856018 0.0
        CHANNELS 3 Zrotation Xrotation Yrotation
        JOINT RightToeBase
        {
          OFFSET 0.0 -2.773e-06 15.261655807
          CHANNELS 3 Zrotation Xrotation Yrotation
          JOINT RightToeBaseEnd
          {
            OFFSET 0.0 -8.79e-07 7.370727539
            CHANNELS 0 
            End Site
            {
              OFFSET 0.0 -2.64e-07 2.211218357
            }
          }
        }
        JOINT RightLegEnd
        {
          OFFSET 0.0 0.0 0.0
          CHANNELS 0 
          End Site
          {
            OFFSET 0.0 -0.0 0.0
          }
        }
      }
      JOINT RightUpLegEnd
      {
        OFFSET 0.0 0.0 0.0
        CHANNELS 0 
        End Site
        {
          OFFSET 0.0 -0.0 0.0
        }
      }
    }
  }
  JOINT LeftUpLeg
  {
    OFFSET 11.315672874 4e-09 -0.0
    CHANNELS 3 Zrotation Xrotation Yrotation
    JOINT LeftLeg
    {
      OFFSET 0.0 -38.200325012 0.0
      CHANNELS 3 Zrotation Xrotation Yrotation
      JOINT LeftFoot
      {
        OFFSET 0.0 -39.900856018 0.0
        CHANNELS 3 Zrotation Xrotation Yrotation
        JOINT LeftToeBase
        {
          OFFSET 0.0 -2.773e-06 15.261655807
          CHANNELS 3 Zrotation Xrotation Yrotation
          JOINT LeftToeBaseEnd
          {
            OFFSET 0.0 -4.22e-07 7.539977551
            CHANNELS 0 
            End Site
            {
              OFFSET 0.0 -2.7e-07 2.261993408
            }
          }
        }
        JOINT LeftLegEnd
        {
          OFFSET 0.0 0.0 0.0
          CHANNELS 0 
          End Site
          {
            OFFSET 0.0 -0.0 0.0
          }
        }
      }
      JOINT LeftUpLegEnd
      {
        OFFSET 0.0 0.0 0.0
        CHANNELS 0 
        End Site
        {
          OFFSET 0.0 -0.0 0.0
        }
      }
    }
  }
}
MOTION
Frames: 4
Frame Time: 0.016666666666666666
-378.915924072 85.266159058 560.525024414 -12.663176537 -19.576709747 -15.739624977 5.611666203 8.772809029 -1.340977073 1.397740364 2.075068712 -0.324046493 2.081039667 13.316243172 -1.527960777 0.845786929 5.5535779 0.343363702 -1.626275897 5.8320508 3.457008839 -0.22323513 -2.738303661 4.320191383 -3.765496492 -16.805500031 -1.625235438 1.829069138 0.405830234 13.450052261 54.532409668 43.570846558 11.0411129 -0.016123699 -13.505373955 22.935194016 8.479423523 -17.271654129 -5.86085844 6.489102364 2.133672237 -2.948340178 0.449062049 1.807842016 -25.861211777 0.225541741 1.279571772 -17.955953598 13.214519501 2.028e-06 -9.735068321 9.250164986 2e-06 -4.005e-06 9.250164986 1e-06 -4.005e-06 12.384954453 8.54e-07 -10.464268684 8.669473648 -2e-06 -3.004e-06 8.669473648 -0.0 -4.004e-06 14.424755096 2.028e-06 -8.796374321 10.097327232 -2e-06 -3.005e-06 10.097327232 -2e-06 -3.005e-06 15.786075592 3.949e-06 -9.108189583 11.050244331 -1e-09 -4.005e-06 11.050257683 9.99e-07 -3.005e-06 -1.659094095 0.344559401 -11.148735046 -59.849224091 37.975666046 -10.845739365 -0.372760564 -6.179895878 -38.397315979 -2.589437962 -13.454672813 10.920435905 -5.290636539 1.982643843 2.422214508 -0.359361202 1.619367003 22.986101151 -0.180804208 1.141700745 15.960268974 -7.985272408 1.547e-06 3.844533443 -5.589696884 1.986e-06 9.88e-07 -5.589696884 -1.4e-08 9.88e-07 -5.258215427 3.282e-06 9.028636932 -3.68074894 -2.009e-06 9.92e-07 -3.68074894 1.991e-06 9.92e-07 -1.403308392 1.374e-06 14.73014164 -0.982322931 -1.003e-06 9.98e-07 -0.982322931 -3e-09 -2e-09 3.761720657 5.923e-06 20.409666061 0.0 -1e-06 1e-06 0.0 -1e-06 1e-06 15.056524277 21.224506378 -14.713202477 -0.002817123 13.467425346 -0.565569282 -7.923164845 9.16767025 -15.814993858 0.492433697 -14.487773895 0.680368841 22.185529709 -2.110940456 9.422927856 -0.001591429 28.565387726 0.586830676 -18.659257889 20.135593414 29.634344101 3.406258821 -19.117923737 0.704117954 
-378.899963379 85.260055542 560.517089844 -12.697321892 -19.526878357 -15.768873215 5.591939449 8.782403946 -1.350593328 1.379388571 2.076432467 -0.348728001 2.085170269 13.31059742 -1.621984601 0.837721884 5.52538681 0.279974878 -1.335044742 5.716829777 3.196885347 -0.260082453 -2.818281174 4.129540443 -3.68049407 -16.743900299 -1.583585978 1.897087216 0.422556698 13.4559021 54.31873703 43.719451904 11.229176521 -0.04799429 -13.453379631 22.943967819 8.50052166 -17.400665283 -5.838953018 6.489103317 2.13367033 -2.948341608 0.449061841 1.807842016 -25.861211777 0.225541741 1.279571772 -17.955953598 13.11714077 -9.6e-07 -9.664094925 9.181987762 -2e-06 -3.005e-06 9.182002068 -0.0 -4.005e-06 12.301709175 -1.174e-06 -10.415125847 8.611189842 -0.0 -2.004e-06 8.611189842 -3e-06 -2.004e-06 14.366987228 -1.067e-06 -8.781438828 10.056885719 -0.0 -4.005e-06 10.056885719 2e-06 -4.005e-06 15.757200241 -2.988e-06 -9.136076927 11.030028343 -1.001e-06 -4.005e-06 11.030028343 -1e-09 -3.005e-06 -1.544981241 0.325259924 -11.271954536 -60.623439789 39.162258148 -10.486064911 -0.364219785 -6.255124569 -37.190853119 0.345449567 -15.106941223 11.498927116 -5.590007305 2.022539854 2.554560423 -0.380894125 1.66690588 23.70482254 -0.19154568 1.176315427 16.459177017 -9.224200249 -5.87e-07 -2.75397563 -6.456943989 -4.016e-06 5.986e-06 -6.456937313 -4.016e-06 9.86e-07 -6.082954884 1.734e-06 4.24268961 -4.258069515 -3.011e-06 2.991e-06 -4.258069515 -1.011e-06 9.91e-07 -1.596007705 4.256e-06 11.690881729 -1.117194057 1.997e-06 9.98e-07 -1.117207766 -3e-09 -2e-09 4.002529144 5.016e-06 19.212802887 0.0 -1e-06 1e-06 0.0 -3e-06 1e-06 15.069923401 21.15788269 -14.693606377 -0.003010622 13.509900093 -0.566064715 -7.91789341 9.16782093 -15.799546242 0.501438498 -14.478539467 0.68596822 22.234251022 -2.178247213 9.474591255 -0.001721901 28.636615753 0.583861887 -18.62582016 20.099281311 29.601387024 3.399812222 -19.110370636 0.708346784 
-378.892150879 85.250083923 560.498474121 -12.740166664 -19.421606064 -15.797457695 5.580005646 8.767778397 -1.344947338 1.38722682 2.054311991 -0.366471529 2.103163958 13.298465729 -1.700196385 0.823032558 5.498756409 0.236301422 -1.11197269 5.601960182 2.9195261 -0.312416911 -2.893681526 3.879244089 -3.595679283 -16.696451187 -1.561322093 1.943720937 0.434227526 13.463315964 54.178321838 43.880844116 11.338054657 -0.063308351 -13.478947639 22.953258514 8.475509644 -17.445323944 -5.781393528 6.489095688 2.133666515 -2.948344946 0.449061692 1.807842016 -25.861215591 0.22554189 1.279569983 -17.955953598 13.004519463 -3.202e-06 -9.611646652 9.103158951 -0.0 -3.004e-06 9.103170395 1e-06 -4.004e-06 12.211569786 -3.202e-06 -10.362735748 8.548100471 -0.0 -3.004e-06 8.548100471 -0.0 -3.004e-06 14.320113182 -1.814e-06 -8.737294197 10.024085045 -1e-06 -4.005e-06 10.024085045 1e-06 -4.005e-06 15.748775482 -2.348e-06 -9.11647892 11.024141312 9.99e-07 -4.005e-06 11.024141312 9.99e-07 -5.005e-06 -1.381469965 0.293965697 -11.334229469 -61.709262848 39.955116272 -9.802350044 -0.326369613 -8.031333923 -36.964988708 3.489728451 -18.291469574 10.749555588 -5.889551163 2.061003447 2.686391354 -0.403031379 1.714168072 24.42358017 -0.202577665 1.210833907 16.958086014 -10.62953186 -3.6e-07 -2.249727726 -7.44067049 -1.9e-08 2.983e-06 -7.44067049 1.981e-06 9.83e-07 -6.70805645 4.54e-07 3.677679062 -4.695641041 -1.2e-08 9.9e-07 -4.695641041 1.988e-06 2.99e-06 -0.472226858 -2.268e-06 9.31926918 -0.330564529 2.999e-06 9.99e-07 -0.330564529 -1e-09 9.99e-07 6.521449566 5.389e-06 14.605244637 0.0 -3e-06 2e-06 0.0 2e-06 -1e-06 15.111793518 21.039260864 -14.658756256 -0.003297112 13.540630341 -0.56653589 -7.920483112 9.167263985 -15.792374611 0.511151254 -14.476947784 0.690704107 22.319452286 -2.315478325 9.550060272 -0.002565059 28.735271454 0.582572699 -18.590810776 20.063476562 29.558628082 3.392222166 -19.102085114 0.708882809 
-378.888122559 85.244354248 560.479003906 -12.777153015 -19.34724617 -15.840532303 5.563064575 8.756438255 -1.330189824 1.381543517 2.055681467 -0.372630775 2.140126944 13.301366806 -1.748166203 0.805096567 5.475016117 0.21265015 -0.955665052 5.480527878 2.630570173 -0.372239918 -2.965622425 3.586848736 -3.511910677 -16.661836624 -1.547762871 1.976692438 0.443088591 13.483100891 54.142189026 43.912780762 11.320339203 -0.064018667 -13.539642334 23.039125443 8.45023632 -17.419858932 -5.81111145 6.48910284 2.133668184 -2.948346615 0.449061841 1.807842016 -25.861211777 0.22553499 1.279567599 -17.955951691 12.877828598 -1.814e-06 -9.554645538 9.014486313 -2e-06 -3.004e-06 9.014486313 -3e-06 -4.004e-06 12.09735775 1.814e-06 -10.307929039 8.468155861 -2e-06 -3.004e-06 8.468155861 1e-06 -3.004e-06 14.227538109 -1.814e-06 -8.66711998 9.959277153 -5e-06 -3.005e-06 9.959277153 2e-06 -5.005e-06 15.681090355 -6.4e-07 -9.037398338 10.97676754 1.999e-06 -3.005e-06 10.97676754 9.99e-07 -4.005e-06 -1.256308675 0.269024372 -11.352131844 -62.926616669 39.50484848 -8.851054192 -0.303889036 -9.377758026 -37.464832306 4.647286892 -19.312578201 10.408920288 -5.590006828 2.022541285 2.554567099 -0.380908281 1.666906357 23.70483017 -0.191538602 1.176314592 16.45916748 -8.962173462 3.322e-06 1.660489202 -6.273527622 1.984e-06 1.986e-06 -6.273513317 1.984e-06 2.986e-06 -5.490931511 1.467e-06 6.123960495 -3.843654871 1.99e-06 1.992e-06 -3.843654871 -1.01e-06 -8e-09 0.036344558 2.753e-06 10.471803665 -0.0 1e-06 1e-06 0.0 -0.0 0.0 6.268603325 5.176e-06 14.529535294 -0.0 3e-06 -0.0 0.0 -0.0 0.0 15.141412735 20.956375122 -14.614619255 -0.003661958 13.560325623 -0.566983044 -7.92496109 9.180212975 -15.785614014 0.520304739 -14.471000671 0.695044756 22.38740921 -2.399348736 9.622179031 -0.003235677 28.795442581 0.581670523 -18.562213898 20.048629761 29.530015945 3.389331579 -19.095214844 0.709466457 
